<svg width="83" height="80" viewBox="0 0 83 80" fill="none" xmlns="http://www.w3.org/2000/svg">
<path d="M31.2273 47.5H51.8637" stroke="#FEBD2F" stroke-width="4" stroke-linecap="round" stroke-linejoin="round"/>
<path d="M31.2273 37.5H51.8637" stroke="#FEBD2F" stroke-width="4" stroke-linecap="round" stroke-linejoin="round"/>
<path d="M51.8636 12.5H64.7614C65.4455 12.5 66.1016 12.7634 66.5854 13.2322C67.0691 13.7011 67.3409 14.337 67.3409 15V67.5C67.3409 68.163 67.0691 68.7989 66.5854 69.2678C66.1016 69.7366 65.4455 70 64.7614 70H18.3295C17.6454 70 16.9893 69.7366 16.5055 69.2678C16.0218 68.7989 15.75 68.163 15.75 67.5V15C15.75 14.337 16.0218 13.7011 16.5055 13.2322C16.9893 12.7634 17.6454 12.5 18.3295 12.5H31.2273" stroke="#FEBD2F" stroke-width="4" stroke-linecap="round" stroke-linejoin="round"/>
<path d="M28.6477 22.5V20C28.6477 16.6848 30.0066 13.5054 32.4254 11.1612C34.8442 8.81696 38.1247 7.5 41.5454 7.5C44.9661 7.5 48.2467 8.81696 50.6655 11.1612C53.0843 13.5054 54.4432 16.6848 54.4432 20V22.5H28.6477Z" stroke="#FEBD2F" stroke-width="4" stroke-linecap="round" stroke-linejoin="round"/>
</svg>
