<svg width="83" height="80" viewBox="0 0 83 80" fill="none" xmlns="http://www.w3.org/2000/svg">
<path d="M31.0454 5V15" stroke="#FEBD2F" stroke-width="4" stroke-linecap="round" stroke-linejoin="round"/>
<path d="M41.3635 5V15" stroke="#FEBD2F" stroke-width="4" stroke-linecap="round" stroke-linejoin="round"/>
<path d="M51.6816 5V15" stroke="#FEBD2F" stroke-width="4" stroke-linecap="round" stroke-linejoin="round"/>
<path d="M15.5681 25H67.159C67.8432 25 68.4993 25.2634 68.9831 25.7322C69.4668 26.2011 69.7386 26.837 69.7386 27.5V57.5C69.7429 58.4861 69.5456 59.4632 69.1582 60.375C68.7708 61.2868 68.201 62.1153 67.4815 62.8125C66.7621 63.5098 65.9073 64.0621 64.9664 64.4375C64.0256 64.813 63.0174 65.0041 61.9999 65H20.7272C19.7098 65.0041 18.7016 64.813 17.7607 64.4375C16.8199 64.0621 15.9651 63.5098 15.2457 62.8125C14.5262 62.1153 13.9564 61.2868 13.569 60.375C13.1816 59.4632 12.9843 58.4861 12.9886 57.5V27.5C12.9886 26.837 13.2604 26.2011 13.7441 25.7322C14.2279 25.2634 14.884 25 15.5681 25Z" stroke="#FEBD2F" stroke-width="4" stroke-linecap="round" stroke-linejoin="round"/>
<path d="M77.9931 32L69.7385 37.5" stroke="#FEBD2F" stroke-width="4" stroke-linecap="round" stroke-linejoin="round"/>
<path d="M4.73389 32L12.9884 37.5" stroke="#FEBD2F" stroke-width="4" stroke-linecap="round" stroke-linejoin="round"/>
</svg>
