<svg width="163" height="40" viewBox="0 0 163 40" fill="none" xmlns="http://www.w3.org/2000/svg">
<path d="M6.99728 15.8261C7.56082 15.8261 8.03043 15.7556 8.40613 15.6147C8.79747 15.4582 9.0949 15.2234 9.2984 14.9103C9.5019 14.5972 9.60365 14.1981 9.60365 13.7128C9.60365 13.2901 9.49407 12.9379 9.27492 12.6562C9.07142 12.3744 8.77399 12.1317 8.38264 11.9282C8.00695 11.7247 7.56082 11.5369 7.04424 11.3647C6.52766 11.1925 5.94847 11.0203 5.30666 10.8481C4.71181 10.6603 4.12479 10.4411 3.5456 10.1907C2.96641 9.92455 2.442 9.59582 1.97239 9.20447C1.50277 8.79747 1.12708 8.29655 0.845309 7.7017C0.579193 7.10686 0.446135 6.37895 0.446135 5.51799C0.446135 4.46918 0.696597 3.58474 1.19752 2.86466C1.7141 2.12893 2.39504 1.57321 3.24035 1.19752C4.10131 0.806175 5.03272 0.610501 6.03457 0.610501C6.89553 0.610501 7.65474 0.727905 8.3122 0.962713C8.96966 1.18187 9.54103 1.56539 10.0263 2.11327C10.5272 2.66116 10.9421 3.41254 11.2708 4.36743L10.0733 4.20306L10.5429 0.845309H12.2805V5.2597H10.2376C10.0498 4.66485 9.76801 4.16393 9.39232 3.75693C9.03228 3.34993 8.60963 3.04468 8.12436 2.84118C7.65474 2.62202 7.13034 2.51245 6.55114 2.51245C6.05022 2.51245 5.61974 2.59072 5.2597 2.74725C4.91531 2.88814 4.6492 3.09947 4.46135 3.38124C4.27351 3.663 4.17958 3.99956 4.17958 4.39091C4.17958 4.78226 4.28133 5.11099 4.48483 5.3771C4.70399 5.64322 4.99358 5.8702 5.35362 6.05805C5.72931 6.23024 6.1598 6.38678 6.64507 6.52766C7.13034 6.66855 7.65474 6.80943 8.21828 6.95032C8.8914 7.13816 9.54103 7.35732 10.1672 7.60778C10.7933 7.85824 11.3491 8.18697 11.8343 8.59397C12.3352 8.98532 12.7266 9.47842 13.0084 10.0733C13.2901 10.6525 13.431 11.3725 13.431 12.2335C13.431 13.3449 13.1806 14.3155 12.6796 15.1451C12.1944 15.9748 11.4978 16.6166 10.5898 17.0705C9.68192 17.5245 8.6018 17.7515 7.34949 17.7515C6.44157 17.7515 5.57278 17.6106 4.74312 17.3288C3.92912 17.0471 3.19339 16.5853 2.53593 15.9435C1.89412 15.3017 1.38537 14.4329 1.00967 13.3371L2.3246 13.5719L1.85498 17.5167H0V12.2805H2.18371C2.46548 13.0162 2.849 13.6502 3.33427 14.1824C3.81954 14.7146 4.37526 15.1216 5.00141 15.4034C5.64322 15.6852 6.30851 15.8261 6.99728 15.8261Z" fill="black"/>
<path d="M24.2338 9.01663L23.8347 8.82878L25.9714 17.5167H30.0806L32.5695 7.95999C32.6478 7.70953 32.7495 7.51386 32.8748 7.37297C33 7.23209 33.1487 7.13034 33.3209 7.06772C33.4931 6.98945 33.6731 6.95032 33.861 6.95032H33.8844V5.49451H29.3527V6.95032H29.3996C29.6344 6.95032 29.8536 6.9738 30.0571 7.02076C30.2762 7.05207 30.4484 7.10686 30.5737 7.18513C30.7145 7.26339 30.785 7.34949 30.785 7.44341L28.5778 16.0843L29.3527 15.1921L26.8402 5.49451H23.4355L20.7352 16.1548L21.4161 15.2156L19.4672 7.16164C19.4672 7.09903 19.5377 7.05989 19.6786 7.04424C19.8351 7.01293 20.0229 6.98945 20.2421 6.9738C20.4769 6.95814 20.7195 6.95032 20.97 6.95032H20.9935V5.49451H14.0666V6.95032H14.0901C14.3249 6.95032 14.5206 6.9738 14.6771 7.02076C14.8337 7.06772 14.9667 7.14599 15.0763 7.25557C15.2016 7.36515 15.2877 7.52168 15.3346 7.72518L17.941 17.5167H22.0266L24.2338 9.01663Z" fill="black"/>
<path d="M38.6479 11.5526C38.6479 12.2413 38.7105 12.8518 38.8358 13.3841C38.9767 13.9163 39.1723 14.3703 39.4228 14.7459C39.6733 15.106 40.002 15.3799 40.409 15.5678C40.816 15.74 41.2856 15.8261 41.8178 15.8261C42.3814 15.8261 42.8588 15.7243 43.2502 15.5208C43.6572 15.3017 44.0015 15.0277 44.2833 14.699C44.5807 14.3546 44.8234 14.0102 45.0112 13.6658L46.5375 14.7225C46.2244 15.3017 45.8252 15.8261 45.34 16.2957C44.8547 16.7496 44.2677 17.1097 43.5789 17.3758C42.9058 17.6263 42.0996 17.7515 41.1604 17.7515C39.7985 17.7515 38.601 17.501 37.5678 17.0001C36.5503 16.4992 35.7598 15.7869 35.1962 14.8633C34.6327 13.9241 34.3509 12.8127 34.3509 11.5291C34.3509 10.2768 34.6249 9.18099 35.1728 8.24176C35.7363 7.30253 36.4955 6.57462 37.4504 6.05805C38.4209 5.52582 39.5167 5.2597 40.7377 5.2597C41.7239 5.2597 42.5849 5.40841 43.3206 5.70584C44.072 5.98761 44.6981 6.41809 45.1991 6.99728C45.7156 7.57647 46.0992 8.30438 46.3496 9.18099C46.6157 10.042 46.7488 11.0516 46.7488 12.21H38.1783V10.5194H43.2736L42.7571 11.2238C42.7414 10.4255 42.6945 9.76801 42.6162 9.25144C42.5379 8.7192 42.4205 8.29655 42.264 7.98347C42.1074 7.6704 41.9118 7.45124 41.6769 7.32601C41.4421 7.18513 41.1604 7.11468 40.8316 7.11468C40.5029 7.11468 40.2055 7.20078 39.9394 7.37297C39.6889 7.54516 39.4619 7.81128 39.2584 8.17132C39.0706 8.53136 38.9219 8.99315 38.8123 9.55669C38.7027 10.1046 38.6479 10.7699 38.6479 11.5526Z" fill="black"/>
<path d="M52.475 11.5526C52.475 12.2413 52.5376 12.8518 52.6628 13.3841C52.8037 13.9163 52.9994 14.3703 53.2499 14.7459C53.5003 15.106 53.8291 15.3799 54.2361 15.5678C54.6431 15.74 55.1127 15.8261 55.6449 15.8261C56.2084 15.8261 56.6859 15.7243 57.0772 15.5208C57.4842 15.3017 57.8286 15.0277 58.1104 14.699C58.4078 14.3546 58.6504 14.0102 58.8383 13.6658L60.3645 14.7225C60.0515 15.3017 59.6523 15.8261 59.167 16.2957C58.6818 16.7496 58.0947 17.1097 57.406 17.3758C56.7328 17.6263 55.9267 17.7515 54.9874 17.7515C53.6256 17.7515 52.428 17.501 51.3949 17.0001C50.3774 16.4992 49.5869 15.7869 49.0233 14.8633C48.4598 13.9241 48.178 12.8127 48.178 11.5291C48.178 10.2768 48.452 9.18099 48.9998 8.24176C49.5634 7.30253 50.3226 6.57462 51.2775 6.05805C52.248 5.52582 53.3438 5.2597 54.5648 5.2597C55.551 5.2597 56.4119 5.40841 57.1477 5.70584C57.8991 5.98761 58.5252 6.41809 59.0261 6.99728C59.5427 7.57647 59.9262 8.30438 60.1767 9.18099C60.4428 10.042 60.5759 11.0516 60.5759 12.21H52.0054V10.5194H57.1007L56.5841 11.2238C56.5685 10.4255 56.5215 9.76801 56.4433 9.25144C56.365 8.7192 56.2476 8.29655 56.091 7.98347C55.9345 7.6704 55.7388 7.45124 55.504 7.32601C55.2692 7.18513 54.9874 7.11468 54.6587 7.11468C54.33 7.11468 54.0326 7.20078 53.7664 7.37297C53.516 7.54516 53.289 7.81128 53.0855 8.17132C52.8977 8.53136 52.7489 8.99315 52.6394 9.55669C52.5298 10.1046 52.475 10.7699 52.475 11.5526Z" fill="black"/>
<path d="M61.2783 7.20861V5.61191H61.3487C61.6931 5.61191 61.9905 5.58843 62.241 5.54147C62.4915 5.47885 62.6871 5.3771 62.828 5.23622C62.9689 5.09533 63.0393 4.88401 63.0393 4.60224L65.5283 5.49451H70.2245V7.20861H61.2783ZM67.172 13.3371C67.172 13.9476 67.2346 14.4329 67.3598 14.7929C67.5007 15.1373 67.6964 15.3878 67.9468 15.5443C68.1973 15.6852 68.5104 15.7556 68.8861 15.7556C69.1835 15.7556 69.4652 15.7243 69.7314 15.6617C69.9975 15.5991 70.201 15.5443 70.3419 15.4973V17.3288C70.2166 17.3914 70.0288 17.4541 69.7783 17.5167C69.5279 17.5793 69.2304 17.6341 68.8861 17.681C68.5573 17.728 68.1895 17.7515 67.7825 17.7515C66.8589 17.7515 66.0214 17.6184 65.27 17.3523C64.5343 17.0862 63.9551 16.6401 63.5324 16.0139C63.1098 15.3721 62.8985 14.5111 62.8985 13.431V5.94064L63.0393 5.77628L63.0628 2.23068H67.172V13.3371Z" fill="black"/>
<path d="M85.9614 0.845309C86.9476 0.845309 87.8164 0.939233 88.5677 1.12708C89.3348 1.31493 89.9688 1.58887 90.4697 1.94891C90.9863 2.29329 91.3776 2.71595 91.6437 3.21687C91.9098 3.71779 92.0429 4.28133 92.0429 4.90749C92.0429 5.7528 91.8159 6.46505 91.362 7.04424C90.9236 7.62343 90.3053 8.06174 89.507 8.35917C88.7243 8.65659 87.8085 8.82878 86.7597 8.87574L87.7459 8.38265V9.08707L86.9476 8.54701C88.0903 8.57832 89.0921 8.76617 89.9531 9.11055C90.8297 9.43928 91.5107 9.91673 91.9959 10.5429C92.4812 11.1534 92.7238 11.9126 92.7238 12.8205C92.7238 13.5563 92.5751 14.2137 92.2777 14.7929C91.9959 15.3721 91.5733 15.8652 91.0097 16.2722C90.4619 16.6792 89.7809 16.9923 88.9669 17.2114C88.1529 17.4149 87.2215 17.5167 86.1727 17.5167H77.3909V15.9435H77.6257C78.0483 15.9435 78.3849 15.8887 78.6354 15.7791C78.9015 15.6695 79.0345 15.4425 79.0345 15.0982V3.26383C79.0345 2.91945 78.9015 2.69247 78.6354 2.58289C78.3849 2.47331 78.0483 2.41852 77.6257 2.41852H77.3909V0.845309H85.9614ZM82.8149 7.95999H84.8813C85.5231 7.95999 86.0318 7.85041 86.4075 7.63126C86.7989 7.41211 87.0806 7.09903 87.2528 6.69203C87.425 6.26937 87.5111 5.7528 87.5111 5.1423C87.5111 4.59441 87.4172 4.14045 87.2293 3.78041C87.0415 3.40472 86.7597 3.12295 86.384 2.9351C86.0083 2.7316 85.5387 2.62985 84.9752 2.62985H83.5663V15.7321H85.1395C85.7813 15.7321 86.3214 15.6226 86.7597 15.4034C87.2137 15.1843 87.5502 14.8477 87.7694 14.3937C88.0042 13.9398 88.1216 13.3606 88.1216 12.6562C88.1216 12.0457 88.012 11.5212 87.7929 11.0829C87.5894 10.629 87.2606 10.2846 86.8067 10.0498C86.3527 9.79932 85.7657 9.67409 85.0456 9.67409H82.8149V7.95999Z" fill="black"/>
<path d="M98.7716 11.5526C98.7716 12.2413 98.8342 12.8518 98.9595 13.3841C99.1003 13.9163 99.296 14.3703 99.5465 14.7459C99.7969 15.106 100.126 15.3799 100.533 15.5678C100.94 15.74 101.409 15.8261 101.942 15.8261C102.505 15.8261 102.982 15.7243 103.374 15.5208C103.781 15.3017 104.125 15.0277 104.407 14.699C104.704 14.3546 104.947 14.0102 105.135 13.6658L106.661 14.7225C106.348 15.3017 105.949 15.8261 105.464 16.2957C104.978 16.7496 104.391 17.1097 103.703 17.3758C103.029 17.6263 102.223 17.7515 101.284 17.7515C99.9222 17.7515 98.7246 17.501 97.6915 17.0001C96.674 16.4992 95.8835 15.7869 95.3199 14.8633C94.7564 13.9241 94.4746 12.8127 94.4746 11.5291C94.4746 10.2768 94.7486 9.18099 95.2965 8.24176C95.86 7.30253 96.6192 6.57462 97.5741 6.05805C98.5446 5.52582 99.6404 5.2597 100.861 5.2597C101.848 5.2597 102.709 5.40841 103.444 5.70584C104.196 5.98761 104.822 6.41809 105.323 6.99728C105.839 7.57647 106.223 8.30438 106.473 9.18099C106.739 10.042 106.872 11.0516 106.872 12.21H98.302V10.5194H103.397L102.881 11.2238C102.865 10.4255 102.818 9.76801 102.74 9.25144C102.662 8.7192 102.544 8.29655 102.388 7.98347C102.231 7.6704 102.035 7.45124 101.801 7.32601C101.566 7.18513 101.284 7.11468 100.955 7.11468C100.627 7.11468 100.329 7.20078 100.063 7.37297C99.8126 7.54516 99.5856 7.81128 99.3821 8.17132C99.1943 8.53136 99.0456 8.99315 98.936 9.55669C98.8264 10.1046 98.7716 10.7699 98.7716 11.5526Z" fill="black"/>
<path d="M117.648 5.44755V9.11055C117.539 9.06359 117.406 9.03228 117.249 9.01663C117.092 8.98532 116.928 8.96184 116.756 8.94619C116.599 8.93053 116.435 8.9227 116.263 8.9227C115.903 8.9227 115.566 8.96184 115.253 9.04011C114.94 9.10272 114.65 9.2123 114.384 9.36884C114.134 9.50972 113.907 9.7054 113.703 9.95586C113.5 10.2063 113.312 10.5116 113.14 10.8716V9.48624C113.359 8.67224 113.617 7.95999 113.915 7.34949C114.212 6.72334 114.588 6.23807 115.042 5.89368C115.496 5.53364 116.075 5.35362 116.779 5.35362C116.967 5.35362 117.139 5.36145 117.296 5.3771C117.452 5.39276 117.57 5.41624 117.648 5.44755ZM108.091 17.5167V16.0374H108.115C108.475 16.0374 108.772 15.9904 109.007 15.8965C109.242 15.8026 109.359 15.6147 109.359 15.333V7.86607C109.359 7.69388 109.32 7.56865 109.242 7.49038C109.164 7.39645 109.046 7.31818 108.89 7.25557C108.733 7.19295 108.53 7.13034 108.279 7.06772L108.091 7.02076V5.49451H113.351V9.2984L113.633 9.01663V15.6147C113.633 15.74 113.719 15.8339 113.891 15.8965C114.079 15.9591 114.29 15.9983 114.525 16.0139C114.76 16.0296 114.971 16.0374 115.159 16.0374H115.347V17.5167H108.091Z" fill="black"/>
<path d="M128.334 5.44755V9.11055C128.224 9.06359 128.091 9.03228 127.935 9.01663C127.778 8.98532 127.614 8.96184 127.441 8.94619C127.285 8.93053 127.121 8.9227 126.948 8.9227C126.588 8.9227 126.252 8.96184 125.939 9.04011C125.626 9.10272 125.336 9.2123 125.07 9.36884C124.819 9.50972 124.592 9.7054 124.389 9.95586C124.185 10.2063 123.998 10.5116 123.825 10.8716V9.48624C124.045 8.67224 124.303 7.95999 124.6 7.34949C124.898 6.72334 125.273 6.23807 125.727 5.89368C126.181 5.53364 126.761 5.35362 127.465 5.35362C127.653 5.35362 127.825 5.36145 127.982 5.3771C128.138 5.39276 128.255 5.41624 128.334 5.44755ZM118.777 17.5167V16.0374H118.801C119.161 16.0374 119.458 15.9904 119.693 15.8965C119.928 15.8026 120.045 15.6147 120.045 15.333V7.86607C120.045 7.69388 120.006 7.56865 119.928 7.49038C119.849 7.39645 119.732 7.31818 119.575 7.25557C119.419 7.19295 119.215 7.13034 118.965 7.06772L118.777 7.02076V5.49451H124.037V9.2984L124.319 9.01663V15.6147C124.319 15.74 124.405 15.8339 124.577 15.8965C124.765 15.9591 124.976 15.9983 125.211 16.0139C125.446 16.0296 125.657 16.0374 125.845 16.0374H126.033V17.5167H118.777Z" fill="black"/>
<path d="M132.82 3.85085C132.1 3.85085 131.529 3.68649 131.106 3.35775C130.699 3.01337 130.496 2.53593 130.496 1.92543C130.496 1.31493 130.699 0.84531 131.106 0.516578C131.529 0.172193 132.1 0 132.82 0C133.525 0 134.081 0.172193 134.488 0.516578C134.91 0.84531 135.122 1.31493 135.122 1.92543C135.122 2.53593 134.91 3.01337 134.488 3.35775C134.081 3.68649 133.525 3.85085 132.82 3.85085ZM135.028 5.49451V15.333C135.028 15.6147 135.145 15.8026 135.38 15.8965C135.615 15.9904 135.912 16.0374 136.272 16.0374H136.296V17.5167H129.463V16.0374H129.486C129.846 16.0374 130.144 15.9904 130.378 15.8965C130.613 15.8026 130.731 15.6147 130.731 15.333V7.86607C130.731 7.61561 130.645 7.44341 130.472 7.34949C130.316 7.25557 130.042 7.16164 129.651 7.06772L129.463 7.02076V5.49451H135.028Z" fill="black"/>
<path d="M141.72 11.5526C141.72 12.2413 141.783 12.8518 141.908 13.3841C142.049 13.9163 142.245 14.3703 142.495 14.7459C142.746 15.106 143.074 15.3799 143.481 15.5678C143.888 15.74 144.358 15.8261 144.89 15.8261C145.454 15.8261 145.931 15.7243 146.323 15.5208C146.73 15.3017 147.074 15.0277 147.356 14.699C147.653 14.3546 147.896 14.0102 148.084 13.6658L149.61 14.7225C149.297 15.3017 148.898 15.8261 148.412 16.2957C147.927 16.7496 147.34 17.1097 146.651 17.3758C145.978 17.6263 145.172 17.7515 144.233 17.7515C142.871 17.7515 141.673 17.501 140.64 17.0001C139.623 16.4992 138.832 15.7869 138.269 14.8633C137.705 13.9241 137.423 12.8127 137.423 11.5291C137.423 10.2768 137.697 9.18099 138.245 8.24176C138.809 7.30253 139.568 6.57462 140.523 6.05805C141.493 5.52582 142.589 5.2597 143.81 5.2597C144.796 5.2597 145.657 5.40841 146.393 5.70584C147.144 5.98761 147.771 6.41809 148.272 6.99728C148.788 7.57647 149.172 8.30438 149.422 9.18099C149.688 10.042 149.821 11.0516 149.821 12.21H141.251V10.5194H146.346L145.83 11.2238C145.814 10.4255 145.767 9.76801 145.689 9.25144C145.61 8.7192 145.493 8.29655 145.336 7.98347C145.18 7.6704 144.984 7.45124 144.749 7.32601C144.515 7.18513 144.233 7.11468 143.904 7.11468C143.575 7.11468 143.278 7.20078 143.012 7.37297C142.761 7.54516 142.534 7.81128 142.331 8.17132C142.143 8.53136 141.994 8.99315 141.885 9.55669C141.775 10.1046 141.72 10.7699 141.72 11.5526Z" fill="black"/>
<path d="M158.202 14.6051C158.202 14.3389 158.124 14.1276 157.967 13.9711C157.826 13.7989 157.623 13.658 157.357 13.5484C157.106 13.4232 156.817 13.3214 156.488 13.2432C156.159 13.1492 155.807 13.0475 155.431 12.9379C154.962 12.8127 154.484 12.6718 153.999 12.5153C153.514 12.3431 153.067 12.1239 152.66 11.8578C152.253 11.576 151.925 11.216 151.674 10.7777C151.439 10.3237 151.322 9.75236 151.322 9.06359C151.322 8.23393 151.541 7.52951 151.979 6.95032C152.433 6.37112 153.052 5.94064 153.834 5.65887C154.633 5.36145 155.564 5.21274 156.629 5.21274C157.505 5.21274 158.257 5.28318 158.883 5.42407C159.509 5.5493 160.018 5.69801 160.409 5.8702C160.8 6.04239 161.074 6.1911 161.231 6.31634V8.75834H158.296V6.71551C158.531 6.69986 158.711 6.73116 158.836 6.80943C158.961 6.87205 159.039 6.96597 159.071 7.0912C159.102 7.20078 159.094 7.31818 159.047 7.44341C159.016 7.56865 158.969 7.69388 158.906 7.81911C158.734 7.63126 158.538 7.47472 158.319 7.34949C158.1 7.20861 157.85 7.10686 157.568 7.04424C157.302 6.98163 156.997 6.95032 156.652 6.95032C156.073 6.95032 155.635 7.05989 155.337 7.27905C155.04 7.4982 154.891 7.79563 154.891 8.17132C154.891 8.43744 154.969 8.65659 155.126 8.82878C155.282 9.00097 155.494 9.14969 155.76 9.27492C156.042 9.40015 156.355 9.50972 156.699 9.60365C157.059 9.69757 157.435 9.79149 157.826 9.88542C158.311 10.0263 158.797 10.1828 159.282 10.355C159.783 10.5116 160.237 10.7307 160.644 11.0125C161.067 11.2943 161.403 11.6543 161.654 12.0926C161.904 12.5153 162.029 13.0397 162.029 13.6658C162.029 14.5424 161.802 15.286 161.348 15.8965C160.91 16.4914 160.253 16.9531 159.376 17.2819C158.515 17.5949 157.451 17.7515 156.183 17.7515C155.337 17.7515 154.57 17.681 153.881 17.5402C153.208 17.4149 152.621 17.2584 152.12 17.0705C151.635 16.867 151.252 16.6792 150.97 16.507V13.8302H153.975V16.554C153.694 16.4131 153.474 16.2644 153.318 16.1078C153.161 15.9356 153.06 15.7713 153.013 15.6147C152.981 15.4425 152.989 15.3017 153.036 15.1921C153.099 15.0668 153.2 14.9964 153.341 14.9808C153.561 15.2156 153.811 15.4112 154.093 15.5678C154.39 15.7243 154.711 15.8339 155.055 15.8965C155.4 15.9591 155.783 15.9904 156.206 15.9904C156.629 15.9904 156.981 15.9435 157.263 15.8495C157.56 15.7556 157.787 15.6069 157.944 15.4034C158.116 15.1843 158.202 14.9181 158.202 14.6051Z" fill="black"/>
<path d="M28.3401 33.6731C28.3401 34.7343 28.6277 35.6015 29.2029 36.2748C29.7825 36.948 30.5784 37.2847 31.5905 37.2847C32.5269 37.2847 33.238 37.0327 33.724 36.5289C34.21 36.0206 34.453 35.4544 34.453 34.8301V34.7967H33.2492V34.8301C33.2492 35.2091 33.1176 35.5435 32.8546 35.8333C32.5915 36.1232 32.1702 36.2681 31.5905 36.2681C30.9128 36.2681 30.4134 36.0184 30.0924 35.519C29.7714 35.0152 29.6109 34.3999 29.6109 33.6731V33.4591C29.6109 32.7323 29.7714 32.1192 30.0924 31.6199C30.4134 31.116 30.9128 30.8641 31.5905 30.8641C32.1702 30.8641 32.5915 31.009 32.8546 31.2988C33.1176 31.5887 33.2492 31.9231 33.2492 32.3021V32.3355H34.453V32.3021C34.453 31.6778 34.21 31.1138 33.724 30.61C33.238 30.1017 32.5269 29.8475 31.5905 29.8475C30.5784 29.8475 29.7825 30.1842 29.2029 30.8574C28.6277 31.5307 28.3401 32.3979 28.3401 33.4591V33.6731Z" fill="black"/>
<path d="M36.5788 33.6731C36.5788 34.7343 36.8797 35.6015 37.4816 36.2748C38.0836 36.948 38.8884 37.2847 39.896 37.2847C40.9037 37.2847 41.7085 36.948 42.3104 36.2748C42.9123 35.6015 43.2133 34.7343 43.2133 33.6731V33.4591C43.2133 32.3979 42.9123 31.5307 42.3104 30.8574C41.7085 30.1842 40.9037 29.8475 39.896 29.8475C38.8884 29.8475 38.0836 30.1842 37.4816 30.8574C36.8797 31.5307 36.5788 32.3979 36.5788 33.4591V33.6731ZM37.8495 33.4591C37.8495 32.7323 38.0211 32.1192 38.3645 31.6199C38.7078 31.116 39.2183 30.8641 39.896 30.8641C40.5738 30.8641 41.0843 31.116 41.4276 31.6199C41.7709 32.1192 41.9426 32.7323 41.9426 33.4591V33.6731C41.9426 34.3999 41.7709 35.0152 41.4276 35.519C41.0843 36.0184 40.5738 36.2681 39.896 36.2681C39.2183 36.2681 38.7078 36.0184 38.3645 35.519C38.0211 35.0152 37.8495 34.3999 37.8495 33.6731V33.4591Z" fill="black"/>
<path d="M45.446 33.6731C45.446 34.7343 45.747 35.6015 46.3489 36.2748C46.9509 36.948 47.7557 37.2847 48.7633 37.2847C49.771 37.2847 50.5758 36.948 51.1777 36.2748C51.7796 35.6015 52.0806 34.7343 52.0806 33.6731V33.4591C52.0806 32.3979 51.7796 31.5307 51.1777 30.8574C50.5758 30.1842 49.771 29.8475 48.7633 29.8475C47.7557 29.8475 46.9509 30.1842 46.3489 30.8574C45.747 31.5307 45.446 32.3979 45.446 33.4591V33.6731ZM46.7168 33.4591C46.7168 32.7323 46.8884 32.1192 47.2318 31.6199C47.5751 31.116 48.0856 30.8641 48.7633 30.8641C49.441 30.8641 49.9516 31.116 50.2949 31.6199C50.6382 32.1192 50.8099 32.7323 50.8099 33.4591V33.6731C50.8099 34.3999 50.6382 35.0152 50.2949 35.519C49.9516 36.0184 49.441 36.2681 48.7633 36.2681C48.0856 36.2681 47.5751 36.0184 47.2318 35.519C46.8884 35.0152 46.7168 34.3999 46.7168 33.6731V33.4591Z" fill="black"/>
<path d="M54.7347 37.084H55.9787V34.7432L60.3995 30.0482H58.9883L55.9787 33.2852V26.8112H54.7347V37.084ZM59.2692 37.084H60.7272L57.3029 32.5896L56.5271 33.4457L59.2692 37.084Z" fill="black"/>
<path d="M62.766 37.084H64.0099V30.0482H62.766V37.084ZM62.6121 27.9214C62.6121 28.1309 62.679 28.3071 62.8128 28.4497C62.9465 28.5924 63.1383 28.6638 63.3879 28.6638C63.6376 28.6638 63.8294 28.5924 63.9631 28.4497C64.0969 28.3071 64.1638 28.1309 64.1638 27.9214C64.1638 27.7118 64.0969 27.5357 63.9631 27.393C63.8294 27.2503 63.6376 27.179 63.3879 27.179C63.1383 27.179 62.9465 27.2503 62.8128 27.393C62.679 27.5357 62.6121 27.7118 62.6121 27.9214Z" fill="black"/>
<path d="M67.1456 37.084H68.3895V32.1081C68.559 31.7692 68.7953 31.4928 69.0985 31.2788C69.4017 31.0648 69.7517 30.9578 70.1485 30.9578C70.6122 30.9578 70.9689 31.0804 71.2186 31.3256C71.4727 31.5664 71.5998 31.9676 71.5998 32.5294V37.084H72.8438V32.5428C72.8438 31.5976 72.632 30.9243 72.2084 30.523C71.7893 30.1173 71.2253 29.9144 70.5163 29.9144C70.0705 29.9144 69.6625 30.0081 69.2924 30.1953C68.9268 30.3781 68.6169 30.63 68.3628 30.9511H68.3227L68.2692 30.0482H67.1456V37.084Z" fill="black"/>
<path d="M75.6918 38.9834C76.0307 39.2777 76.4454 39.5207 76.9358 39.7124C77.4263 39.9041 77.9613 40 78.5409 40C79.4773 40 80.2375 39.7369 80.8216 39.2108C81.4057 38.6847 81.6977 37.9312 81.6977 36.9502V30.0482H80.5741L80.5206 30.9644H80.4805C80.3021 30.6746 80.0279 30.4272 79.6578 30.2221C79.2922 30.017 78.8642 29.9144 78.3737 29.9144C77.482 29.9144 76.7686 30.2488 76.2336 30.9176C75.6985 31.5864 75.431 32.4336 75.431 33.4591V33.6731C75.431 34.6986 75.6985 35.5458 76.2336 36.2146C76.7686 36.8834 77.482 37.2178 78.3737 37.2178C78.8642 37.2178 79.2811 37.1308 79.6244 36.9569C79.9722 36.7786 80.2486 36.5445 80.4537 36.2547V36.9502C80.4537 37.5745 80.2798 38.0582 79.9321 38.4016C79.5843 38.7449 79.1094 38.9165 78.5075 38.9165C78.0616 38.9165 77.6603 38.8274 77.3036 38.649C76.947 38.4751 76.6705 38.2745 76.4743 38.0471L75.6918 38.9834ZM76.7017 33.6731V33.4591C76.7017 32.7457 76.8578 32.146 77.1699 31.66C77.482 31.174 77.9725 30.931 78.6413 30.931C79.0871 30.931 79.4661 31.0536 79.7782 31.2988C80.0903 31.5441 80.3155 31.8227 80.4537 32.1348V34.9973C80.3155 35.3094 80.0903 35.5881 79.7782 35.8333C79.4661 36.0786 79.0871 36.2012 78.6413 36.2012C77.9725 36.2012 77.482 35.9582 77.1699 35.4722C76.8578 34.9862 76.7017 34.3865 76.7017 33.6731Z" fill="black"/>
<path d="M88.7581 35.0107V35.0442C88.7581 35.7219 89.0034 36.2658 89.4938 36.676C89.9843 37.0818 90.6977 37.2847 91.634 37.2847C92.5703 37.2847 93.2726 37.084 93.7407 36.6827C94.2089 36.2814 94.443 35.7687 94.443 35.1445C94.443 34.5203 94.2357 34.0409 93.821 33.7065C93.4108 33.3721 92.8267 33.1158 92.0687 32.9374C91.3108 32.7591 90.8025 32.5919 90.5439 32.4358C90.2852 32.2798 90.1559 32.068 90.1559 31.8004C90.1559 31.5329 90.2674 31.31 90.4903 31.1316C90.7177 30.9533 91.0767 30.8641 91.5671 30.8641C92.0576 30.8641 92.4187 30.96 92.6506 31.1517C92.8869 31.3434 93.0051 31.6065 93.0051 31.9409V32.0011H94.2423V31.9676C94.2423 31.3167 93.9971 30.8017 93.5067 30.4227C93.0162 30.0393 92.3697 29.8475 91.5671 29.8475C90.7646 29.8475 90.1225 30.0393 89.641 30.4227C89.1639 30.8062 88.9253 31.2877 88.9253 31.8673C88.9253 32.447 89.1483 32.8995 89.5942 33.225C90.04 33.546 90.6419 33.7957 91.3999 33.9741C92.1579 34.1524 92.6506 34.3263 92.878 34.4957C93.1054 34.6607 93.2191 34.8992 93.2191 35.2114C93.2191 35.5235 93.0764 35.7776 92.791 35.9738C92.5101 36.17 92.1245 36.2681 91.634 36.2681C91.1435 36.2681 90.749 36.1655 90.4502 35.9604C90.1515 35.7553 90.0021 35.4499 90.0021 35.0442V35.0107H88.7581Z" fill="black"/>
<path d="M96.6423 33.6731C96.6423 34.7343 96.9299 35.6015 97.5051 36.2748C98.0847 36.948 98.8806 37.2847 99.8927 37.2847C100.829 37.2847 101.54 37.0327 102.026 36.5289C102.512 36.0206 102.755 35.4544 102.755 34.8301V34.7967H101.551V34.8301C101.551 35.2091 101.42 35.5435 101.157 35.8333C100.894 36.1232 100.472 36.2681 99.8927 36.2681C99.215 36.2681 98.7156 36.0184 98.3946 35.519C98.0735 35.0152 97.913 34.3999 97.913 33.6731V33.4591C97.913 32.7323 98.0735 32.1192 98.3946 31.6199C98.7156 31.116 99.215 30.8641 99.8927 30.8641C100.472 30.8641 100.894 31.009 101.157 31.2988C101.42 31.5887 101.551 31.9231 101.551 32.3021V32.3355H102.755V32.3021C102.755 31.6778 102.512 31.1138 102.026 30.61C101.54 30.1017 100.829 29.8475 99.8927 29.8475C98.8806 29.8475 98.0847 30.1842 97.5051 30.8574C96.9299 31.5307 96.6423 32.3979 96.6423 33.4591V33.6731Z" fill="black"/>
<path d="M105.302 37.084H106.546V32.1081C106.716 31.7692 106.952 31.4928 107.255 31.2788C107.558 31.0648 107.908 30.9578 108.305 30.9578C108.769 30.9578 109.126 31.0804 109.375 31.3256C109.629 31.5664 109.756 31.9676 109.756 32.5294V37.084H111V32.5428C111 31.5976 110.789 30.9243 110.365 30.523C109.946 30.1173 109.409 29.9144 108.753 29.9144C108.298 29.9144 107.879 30.0058 107.496 30.1886C107.112 30.3714 106.796 30.6144 106.546 30.9176V26.8112H105.302V37.084Z" fill="black"/>
<path d="M113.588 33.6731C113.588 34.7343 113.889 35.6015 114.491 36.2748C115.092 36.948 115.897 37.2847 116.905 37.2847C117.913 37.2847 118.717 36.948 119.319 36.2748C119.921 35.6015 120.222 34.7343 120.222 33.6731V33.4591C120.222 32.3979 119.921 31.5307 119.319 30.8574C118.717 30.1842 117.913 29.8475 116.905 29.8475C115.897 29.8475 115.092 30.1842 114.491 30.8574C113.889 31.5307 113.588 32.3979 113.588 33.4591V33.6731ZM114.858 33.4591C114.858 32.7323 115.03 32.1192 115.373 31.6199C115.717 31.116 116.227 30.8641 116.905 30.8641C117.583 30.8641 118.093 31.116 118.437 31.6199C118.78 32.1192 118.951 32.7323 118.951 33.4591V33.6731C118.951 34.3999 118.78 35.0152 118.437 35.519C118.093 36.0184 117.583 36.2681 116.905 36.2681C116.227 36.2681 115.717 36.0184 115.373 35.519C115.03 35.0152 114.858 34.3999 114.858 33.6731V33.4591Z" fill="black"/>
<path d="M122.455 33.6731C122.455 34.7343 122.756 35.6015 123.358 36.2748C123.96 36.948 124.765 37.2847 125.772 37.2847C126.78 37.2847 127.585 36.948 128.187 36.2748C128.789 35.6015 129.09 34.7343 129.09 33.6731V33.4591C129.09 32.3979 128.789 31.5307 128.187 30.8574C127.585 30.1842 126.78 29.8475 125.772 29.8475C124.765 29.8475 123.96 30.1842 123.358 30.8574C122.756 31.5307 122.455 32.3979 122.455 33.4591V33.6731ZM123.726 33.4591C123.726 32.7323 123.897 32.1192 124.241 31.6199C124.584 31.116 125.095 30.8641 125.772 30.8641C126.45 30.8641 126.96 31.116 127.304 31.6199C127.647 32.1192 127.819 32.7323 127.819 33.4591V33.6731C127.819 34.3999 127.647 35.0152 127.304 35.519C126.96 36.0184 126.45 36.2681 125.772 36.2681C125.095 36.2681 124.584 36.0184 124.241 35.519C123.897 35.0152 123.726 34.3999 123.726 33.6731V33.4591Z" fill="black"/>
<path d="M131.797 37.084H133.041V26.8112H131.797V37.084Z" fill="black"/>
</svg>
